<svg width="525.67mm" height="387.29mm" version="1.1" viewBox="0 0 525.67 387.29" xmlns="http://www.w3.org/2000/svg">
 <g transform="translate(-8.2585 -67.696)" display="none">
  <path d="m501.59 61.662c-6.2246 0.81126-15.61-1.9818-18.979 5.3047-1.9412 7.9804 1.8348 16.874-2.2109 24.283-8.8899 6.4655-20.287 2.7275-30.492 4.177-12.705-0.04452-25.732 2.5567-38.057-0.39573-4.9294-4.6346-1.6287-12.064-2.5371-18.004 0.85213-4.4433-0.26623-11.725-6.2988-11.043-21.967 2.4919-44.308 2.5261-66.42 4.0459-87.023 4.4981-174.06 8.7721-261.07 13.507-2.4821 7.5586 1.7734 15.81-1.7285 23.078-8.3951 3.2291-17.671 0.28909-26.387 2.1074-4.0484 0.77021-11.211 0.58913-10.092-5.4238-0.53105-5.3118 2.7477-13.206-2.7031-16.822-5.0833-2.0293-10.859-0.24639-16.004 0.74805-11.245 3.6975-18.355 16.18-16.235 27.746-0.08215 80.504-0.33522 161.07 0.64412 241.53 2.9603 13.671 17.27 22.739 30.653 22.481 6.2391-2.4021 4.4214-10.177 4.207-15.295-0.58859-3.1662-0.18247-8.4448 4.3496-6.3535 10.518 1.2313 21.547 2.1129 31.451 5.6758 5.4633 6.6591-1.9927 17.627 5.3633 23.387 5.9871 3.4076 13.341 1.7758 19.704 4.1218 103.39 18.086 206.84 35.842 310.16 54.284 2.2707-9.2597-1.5744-18.984 1.9062-27.916 8.345-3.7896 17.171 1.4916 25.783 1.7012 13.967 2.6974 28.969 2.3352 42.023 8.4023 6.4582 5.4844 2.5047 14.568 3.5462 21.728 0.51174 3.9739-1.0812 10.415 4.985 9.6859 15.425 3.3852 34.467 5.1944 46.596-7.0801 9.9082-11.126 4.8736-27.249 6.0501-40.562 0.0981-108.14 0.43265-216.3-0.19072-324.43-3.5677-16.848-22.265-25.05-38.021-24.676zm-225.49 34.004c12.922-0.11658 28.217 9.9014 26.613 24.236-2.8114 17.764-24.708 25.512-40.466 20.335-11.332-3.0376-21.504-15.348-16.545-27.316 4.6883-11.769 18.369-17.649 30.398-17.256zm196.81 42.898c5.6017-0.29728 11.405 5.0043 9.0706 10.775-0.79071 12.452 1.8117 25.577-1.2992 37.544-8.045 5.9293-18.54 1.8969-27.74 2.623-13.795-0.9071-28.149 1.4782-41.35-3.0469-4.5464-5.4955-0.77291-12.856-1.8945-19.311 0.33137-8.2008-1.4531-17.063 1.2207-24.824 7.9418-5.863 18.248-1.6872 27.33-3.2877 11.553-0.21154 23.109-0.28849 34.663-0.47211zm-401.31 5.3281c5.9555 1.1958 2.9601 8.7056 3.4613 12.771-0.10614 7.4869 1.3805 15.572-1.0512 22.69-6.4993 2.7545-13.68-0.13158-20.527 0.4375-4.948-0.28679-11.902 1.9148-15.438-2.418-1.768-7.7901 0.96449-15.895-0.54883-23.793-0.8003-3.7726-0.13953-9.8945 5.0391-8.9941 9.4536-1.0297 19.398 0.35816 29.064-0.69336zm121.58 10.303c22.453 0.78341 43.477 9.7794 65.377 13.867 17.91 4.6802 34.588 16.118 43.317 32.866 6.5408 9.9995 11.378 21.407 18.747 30.798 6.6913 3.9471 14.803 1.1947 22.084 2.6914 12.25 0.4285 27.853-0.97098 36.055 10.246 4.8486 6.9826-0.22337 15.92-7.7773 17.854-12.637 3.7773-25.723-0.91085-38.595-0.58314-14.621-0.60984-32.328-1.4406-41.592-14.784-8.4989-11.128-12.746-25.173-22.83-35.252-10.256 19.085-19.481 38.696-29.18 58.064 19.345 12.546 41.479 20.971 58.928 36.162 6.5674 7.6171 6.7476 19.081 1.3293 27.351-7.8244 18.029-13.468 37.256-23.185 54.313-11.192 8.8063-31.99-0.67213-30.697-15.418 1.9878-8.6762 6.8771-16.378 9.3754-24.925 3.5346-9.6231 8.7166-19.243 10.173-29.286-3.1317-7.2675-12.185-8.1625-17.525-13.205-17.895-11.399-37.373-20.448-53.506-34.273-8.8928-9.7182-10.347-25.313-2.6233-36.129 7.5093-15.625 16.043-30.765 22.703-46.79-2.3157-7.9495-11.943-7.5755-18.436-9.0469-16.03-0.64787-27.505 12.58-40.508 19.787-7.5551 5.5927-20.345 3.8204-23.342-5.9082-2.459-7.0024 3.6413-11.975 9.0506-14.781 15.685-11.331 32.392-24.349 52.656-23.617zm-152.86 61.18c11.172 1.1299 23.025-0.86977 33.711 2.5859 2.9539 6.3706 0.18288 13.577 1.0781 20.35-0.16355 4.5287 2.0586 10.9-1.7363 14.176-8.2188 1.2378-16.427-2.0058-24.738-1.2774-4.5504 0.22657-11.73-0.73834-10.969-6.8535 0.50262-8.4129 0.65695-16.827-0.0625-25.223 0.15232-1.4266 0.92728-3.8763 2.7168-3.7578zm377.28 16.217c20.175 1.3685 40.934-0.0434 60.688 3.9062 6.9416 4.1989 2.6317 12.891 3.6236 19.25-0.16771 9.2869 1.3395 19.146-1.149 27.922-7.4713 5.1515-16.81 0.78685-25.133 1.1061-14.567-1.8514-29.875-0.2693-43.682-5.4947-4.9548-5.6473-1.197-13.834-2.2338-20.607 0.16143-7.9445-1.4873-17.088 1.3764-24.141 1.7796-1.5441 4.2369-1.9049 6.5098-1.9414zm-251.6 53.285c6.0877 8.3706 14.58 15.022 22.908 20.625-3.7853 9.1441-12.496 17.23-23.055 15.514-16.586-0.67607-33.061-4.2995-49.689-5.7461-9.4988-0.72213-18.153-13.658-9.2363-20.691 7.759-4.1093 16.782-0.23813 25.042-0.29707 8.1378 0.20734 16.223 2.8195 24.331 2.1858 6.1196-0.76347 7.0425-7.5105 9.459-11.92zm-126.13 1.291c11.252 1.7418 23.696 0.13467 34.256 4.6836 3.2204 6.4215 0.29882 13.757 1.0625 20.625-0.38767 4.3675 2.2518 10.655-1.541 13.643-8.5974 0.57022-16.925-3.0614-25.6-2.8281-4.7593-0.0581-11.097-2.1777-10.279-8.086 0.2329-8.4568 0.16819-17.017-0.04687-25.531 0.23293-1.0136 0.89514-2.6373 2.1484-2.5059zm376.96 37.373c20.613 2.6745 41.634 2.1124 61.656 7.6523 6.8977 5.1233 2.2348 14.311 3.4353 21.32 0.13277 8.5145 0.82694 17.39-0.78684 25.655-7.8742 4.8529-16.971-0.11076-25.514-0.30469-14.451-2.467-29.547-2.0629-43.168-7.7305-5.7198-5.9158-1.668-14.85-2.7499-22.16 0.23071-7.5367-1.5504-16.006 1.4296-22.951 1.6357-1.1734 3.7157-1.5731 5.6973-1.4805z" fill="#fff" stroke-width=".26458"/>
 </g>
 <g transform="translate(269.48 243.39)">
  <path d="m225.77 143.82c-0.65485-0.0627-4.3087-0.64532-8.1196-1.2947-3.8109-0.64939-6.9899-1.1807-7.0644-1.1807s-0.17119-5.0899-0.21482-11.311l-0.0793-11.311-1.0249-1.9182c-1.2214-2.2858-2.5972-3.9056-4.6249-5.445-2.8738-2.1816-5.784-3.5436-9.1033-4.2604-3.063-0.66141-54.628-8.6436-56.817-8.7952-3.4813-0.24106-7.5007 0.95808-9.9564 2.9703-0.72208 0.59168-1.4449 1.5655-2.0029 2.6985l-0.87307 1.7727-0.0777 10.393-0.0776 10.393-0.5838-0.13314c-1.0026-0.22868-320.53-55.963-320.83-55.963-0.20217 0-0.29854-1.5675-0.31312-5.0932-0.0116-2.8013-0.10176-6.8196-0.2004-8.9297-0.16225-3.4711-0.25028-3.9813-0.9244-5.3578-1.4111-2.8812-4.2459-5.2972-7.3208-6.2393-0.50932-0.15608-8.2969-1.4279-17.306-2.8263-11.697-1.8157-16.689-2.492-17.462-2.3657-1.8705 0.3053-3.5636 1.1924-4.666 2.4448-1.7168 1.9504-1.8409 2.7424-1.8409 11.752v7.8945l-0.59531-0.1387c-0.32742-0.07628-2.1647-0.42399-4.0828-0.77266-5.3983-0.98134-9.0638-2.7916-12.413-6.1303-2.8076-2.7991-4.5228-5.7221-5.7026-9.7179l-0.56204-1.9037-0.22897-84.137c-0.12593-46.276-0.19903-102.06-0.16244-123.96 0.0635-38.034 0.0885-39.879 0.55715-41.143 1.5008-4.0466 3.7611-7.2118 6.5743-9.2064 3.7729-2.675 6.5691-3.5402 12.28-3.7997l3.7724-0.17141 0.0832 8.4408 0.0832 8.4408 0.70125 1.3229c1.4034 2.6476 3.9895 4.4834 6.7528 4.7937 0.70245 0.0789 8.56-0.10507 17.461-0.4088 18.111-0.61796 18.348-0.64762 20.774-2.5961 1.5437-1.24 2.1598-2.0256 2.9941-3.8176l0.65678-1.4108 3e-3 -8.6414 3e-3 -8.6414 2.1828-0.16342c1.2006-0.0899 73.085-3.7872 159.74-8.2164 86.658-4.4291 158.17-8.0954 158.91-8.1473l1.3528-0.0944 0.13658 10.338c0.1315 9.9525 0.15909 10.397 0.74075 11.925 0.44328 1.1648 1.0331 2.0139 2.2148 3.1887 2.4845 2.4699 5.244 3.7857 9.019 4.3006 2.2451 0.3062 55.687-1.3293 58.987-1.8052 5.8056-0.83719 10.875-4.1008 13.002-8.3699l0.77079-1.5474 0.0794-11.179c0.0602-8.4643 0.15653-11.182 0.39688-11.191 0.1746-7e-3 3.2345-0.16647 6.7997-0.3551 7.3136-0.38696 11.426-0.22498 15.517 0.61123 11.779 2.4073 20.275 9.1348 22.562 17.864l0.55009 2.1002v174.66c0 168.83-0.0164 174.72-0.48742 176.49-1.0232 3.8504-3.6016 7.5997-6.8826 10.008-3.0297 2.224-7.3596 3.9754-11.846 4.7916-2.3226 0.42251-8.9099 0.71048-11.211 0.49008zm-230.99-58.556c3.0969-0.90099 5.9762-2.5316 7.9537-4.5045 2.0738-2.0689 2.9643-3.573 4.7024-7.9424 0.72356-1.819 3.6397-9.0223 6.4802-16.007s7.6805-18.891 10.755-26.458c3.075-7.5671 5.8383-14.711 6.1407-15.875 0.64246-2.4733 0.76068-6.969 0.25244-9.6011-1.7155-8.8843-7.9336-17.093-17.1-22.574-1.3121-0.78465-11.987-6.9003-23.722-13.59l-21.336-12.164 0.45859-0.93324c8.711-17.727 21.872-44.192 21.975-44.189 0.076359 0.0019 1.5268 2.4128 3.2231 5.3578 8.698 15.1 12.578 21.66 13.754 23.255 0.71419 0.9684 2.4153 2.8284 3.7802 4.1333 5.8896 5.6305 13.899 9.5495 22.509 11.013 1.3097 0.22267 13.275 1.2003 26.591 2.1724 22.488 1.6418 24.398 1.745 26.855 1.4508 1.4552-0.1742 3.5983-0.56309 4.7625-0.86416 2.3424-0.60579 6.347-2.3826 8.1214-3.6034 5.8361-4.0153 8.7841-10.122 7.9085-16.381-0.59272-4.237-2.3575-7.6544-5.7111-11.059-4.4295-4.497-10.169-7.3574-16.933-8.4399-2.1932-0.35095-33.8-2.018-38.149-2.0121l-1.1069 0.0016-9.8538-16.47c-5.4196-9.0587-10.62-17.661-11.557-19.116-8.0988-12.581-21.067-22.326-36.965-27.778-1.1642-0.39924-8.2484-2.2653-15.743-4.1468-7.4943-1.8815-20.055-5.0352-27.914-7.0083-7.8581-1.9731-15.776-3.8198-17.595-4.1037-4.388-0.68499-12.336-0.92059-16.943-0.50224-10.38 0.94261-20.178 4.0456-28.293 8.9603-1.0956 0.66345-7.9451 5.2579-15.221 10.21-14.907 10.146-16.022 11.067-17.837 14.748-1.416 2.8719-1.9765 5.5128-1.7612 8.298 0.56542 7.3139 5.7404 13.509 13.438 16.087 2.3161 0.77564 2.688 0.82298 6.5564 0.83448 3.5705 0.0106 4.3578-0.0675 6.0854-0.60368 2.8188-0.87487 3.6956-1.3953 18.047-10.712 7.0881-4.6014 13.716-8.7836 14.729-9.2938 3.1334-1.578 5.7008-2.1338 9.8216-2.1263 3.5058 6e-3 3.6625 0.0323 8.4667 1.4002 2.6921 0.76656 5.0487 1.4465 5.2369 1.511 0.23147 0.0793-3.8492 8.4825-12.618 25.984-13.442 26.828-13.836 27.704-14.569 32.349-0.39902 2.5315-0.3335 7.5325 0.13388 10.218 1.6565 9.5181 7.6132 18.653 16.398 25.146 1.0156 0.7507 15.416 9.5214 32.001 19.49 16.585 9.969 30.198 18.255 30.251 18.414 0.08836 0.26509-2.1079 5.9631-11.328 29.39-9.5197 24.188-8.8048 22.115-8.8077 25.532-0.0074 8.7781 6.8173 17.167 17.127 21.052 3.8782 1.4615 6.1537 1.8256 10.734 1.7178 2.9535-0.06953 4.2915-0.22267 5.8136-0.66551zm206.63-10.476c3.6786-0.86704 6.8202-3.1034 8.2262-5.8558l0.65129-1.2749v-44.726l-0.88659-1.8009c-2.1209-4.3082-7.4625-7.9395-13.283-9.0301-2.8254-0.5294-55.031-5.6943-57.556-5.6943-5.1139 0-9.9061 2.506-11.83 6.186l-0.84632 1.6192v42.333l0.8234 1.7198c1.0112 2.112 2.2049 3.6254 4.088 5.1826 1.9133 1.5822 5.5415 3.3806 7.9526 3.9419 1.074 0.25003 13.859 2.0963 28.411 4.1027 28.293 3.9011 30.7 4.1328 34.25 3.2962zm-402.38-55.078c1.647-0.7329 3.1541-2.1432 3.9451-3.6916l0.65275-1.2779 0.0738-16.773c0.0647-14.714 0.0219-16.955-0.34869-18.256-1.0139-3.5592-4.1519-6.5373-7.8255-7.427-1.8915-0.45805-33.345-3.4871-34.499-3.3223-1.5089 0.21534-3.5636 1.2307-4.612 2.2791-0.4942 0.49419-1.2061 1.5541-1.582 2.3553l-0.68342 1.4568-0.0758 12.7c-0.0417 6.985 0.0225 14.554 0.14276 16.819 0.20141 3.7962 0.279 4.2389 0.9887 5.6416 1.0481 2.0716 3.5998 4.4314 5.6073 5.1856 1.0551 0.39645 4.7838 1.0263 11.858 2.003 5.6753 0.78359 12.76 1.7791 15.743 2.2123 6.2073 0.90128 8.7524 0.92403 10.616 0.09491zm97.996-4.4104c6.139-1.6053 11.447-5.1475 14.613-9.7517 1.249-1.8162 7.2229-13.078 7.2076-13.587-0.0039-0.13126-2.2179-1.6078-4.9199-3.2813-6.6042-4.0903-9.8689-6.5952-14.137-10.847-4.8073-4.7889-9.0977-10.461-11.259-14.883-0.40885-0.83674-0.81028-1.5214-0.89207-1.5214-0.0818 0-2.2266 4.0959-4.7664 9.1019l-4.6176 9.1019-0.80093-0.11369c-0.44051-0.06252-9.9092-1.0124-21.042-2.1109-18.925-1.8674-20.401-1.9783-22.714-1.7071-15.233 1.7868-19.325 19.457-6.8651 29.644 1.7672 1.4448 6.1246 3.6965 8.206 4.2405 0.68658 0.17944 12.355 1.7348 25.929 3.4563 24.103 3.0568 24.783 3.128 29.046 3.0409 3.6658-0.0749 4.7898-0.2001 7.0114-0.78105zm303.54-35.766c3.824-0.8586 7.5748-3.5365 8.99-6.4184l0.73768-1.5022v-44.715l-0.89646-1.7198c-2.0643-3.9602-7.0016-7.2176-12.415-8.1906-2.0816-0.37417-56.958-2.7215-58.92-2.5203-5.1304 0.52616-9.6081 3.2429-11.417 6.9272l-0.75363 1.5348v42.598l0.77639 1.559c1.942 3.8996 6.2799 7.0239 11.394 8.2067 2.653 0.61354 55.987 4.9236 58.737 4.7467 1.1642-0.07485 2.8589-0.30274 3.766-0.50641zm-401.65-32.665c1.9865-0.97796 3.5768-2.6983 4.233-4.5792 0.44393-1.2724 0.47178-2.5334 0.39837-18.037-0.0873-18.428-0.0671-18.197-1.7905-20.57-1.2388-1.7058-3.0795-3.0068-5.142-3.6343-1.4934-0.45439-3.8269-0.61439-17.727-1.2154-8.804-0.38068-16.623-0.63081-17.376-0.55586-2.7633 0.27506-5.3336 2.0237-6.655 4.5275l-0.70705 1.3397v33.878l0.85988 1.7467c1.3468 2.7357 4.2465 4.9815 7.0021 5.4232 2.5474 0.40833 32.084 2.6968 33.545 2.599 1.2101-0.08102 2.2057-0.35436 3.3595-0.92239zm401.18-62.696c4.3484-1.2499 8.033-3.9968 9.4668-7.0575l0.72392-1.5453v-44.715l-0.90117-1.6619c-2.2424-4.1354-7.3081-7.0539-13.193-7.6006-2.6717-0.24822-56.857 0.61047-58.546 0.92779-5.0821 0.95488-9.2409 3.7292-11.019 7.3511l-0.74287 1.5128v42.862l0.77829 1.5875c1.8859 3.8467 6.5625 6.8326 11.839 7.5588 2.6336 0.36247 49.021 1.5721 55.249 1.4407 3.4773-0.0734 4.7685-0.20791 6.3457-0.66125zm-402.51-9.4962c2.7096-1.0601 5.0413-3.6122 5.6291-6.1614 0.16074-0.69701 0.26588-7.4816 0.2679-17.287 3e-3 -16.951-0.0453-17.753-1.1927-19.6-1.2792-2.0584-3.0339-3.4284-5.3879-4.2068-1.3401-0.44313-2.4947-0.4607-18.208-0.27711-12.413 0.14503-17.117 0.28583-18.086 0.54134-2.7592 0.72786-4.7706 2.4409-6.0374 5.1417l-0.68821 1.4673 6e-3 33.073 0.73737 1.5875c0.96702 2.0819 2.7595 3.8781 4.783 4.7927 1.8595 0.84046 0.42456 0.75173 20.799 1.2862 13.884 0.36421 15.623 0.32841 17.377-0.35767zm203.55-38.5c14.542-2.0682 26.085-11.352 29.422-23.663 0.43452-1.6033 0.55036-2.8105 0.55036-5.735 0-4.4158-0.48731-6.5911-2.338-10.436-1.5926-3.3091-3.007-5.2365-5.8401-7.9581-6.185-5.9418-14.468-9.2841-24.043-9.7012-9.1398-0.39822-17.505 1.8875-24.795 6.7751-7.4328 4.9835-12.143 12.141-13.196 20.053-1.1351 8.5298 2.7629 17.437 10.143 23.177 5.0707 3.9439 10.279 6.1858 17.264 7.4311 2.7302 0.48673 9.5965 0.51727 12.832 0.0571z" stroke-width=".26458"/>
  <g fill="#fff" stroke-width="2.8571">
   <path transform="matrix(.26458 0 0 .26458 -277.74 -311.09)" d="m981.56 1497.1c-43.24-10.914-76.417-46.424-76.417-81.79 0-8.2604 1.2583-17.972 2.7962-21.582 16.795-39.419 71.419-184.05 70.457-186.56-0.69411-1.8089-54.169-35.335-118.83-74.503-120.58-73.039-136.64-84.738-156.32-113.88-18.739-27.75-26.711-76.272-16.988-103.4 2.1827-6.0904 25.334-54.672 51.447-107.96 26.113-53.288 46.885-97.48 46.159-98.205-3.4028-3.4028-41.438-12.049-52.942-12.035-21.785 0.0269-32.048 4.6751-83.375 37.761-27.249 17.565-56.475 35.537-64.947 39.937-48.061 24.965-109.16-9.2272-108.82-60.902 0.1033-15.917 9.5463-32.38 26.104-45.51 23.708-18.801 105.06-72.533 125.25-82.722 30.73-15.512 66.153-22.865 110.16-22.865h37.983l118.16 29.564c143.08 35.8 162.9 43.807 211.49 85.426 22.633 19.387 36.185 38.347 82.36 115.23 37.437 62.333 40.662 66.787 49.25 68.021 5.0544 0.72611 38.878 2.6767 75.163 4.3347 50.014 2.2853 70.167 4.3197 83.309 8.4102 28.333 8.8183 49.149 25.432 59.622 47.587 16.201 34.27 2.2734 69.501-34.266 86.677-26.61 12.508-33.73 12.748-140.37 4.73-111.82-8.408-128.41-11.809-160.63-32.949-24.593-16.136-33.662-27.738-68.682-87.863-27.592-47.372-30.874-51.873-34.412-47.195-4.4556 5.8901-83.913 167.18-82.741 167.96 0.42063 0.2786 41.07 23.542 90.331 51.698 103.48 59.143 117.35 69.843 133.87 103.26 9.4946 19.211 10.682 23.984 10.44 41.965-0.258 19.163-2.4204 25.597-38.988 116-63.972 158.16-61.689 153.74-85.854 166.16-12.716 6.5387-43.753 9.2394-59.758 5.1996z"/>
   <path transform="matrix(.26458 0 0 .26458 -277.74 -311.09)" d="m592.29 1232.5c-4.7143-0.6894-43.929-5.8033-87.143-11.364-48.675-6.2638-82.92-12.029-90-15.153-49.729-21.938-61.634-81.981-21.83-110.1 9.405-6.6439 15.734-8.6746 29.746-9.5432 15.112-0.9369 116.98 7.3516 155.52 12.653l12.007 1.6519 16.507-33.161c9.0787-18.239 17.178-33.161 17.998-33.161s4.5889 5.8396 8.3752 12.977c11.291 21.284 51.223 61.262 80 80.093 14.23 9.3117 25.894 18.012 25.918 19.334 0.148 7.9296-27.748 54.644-37.736 63.194-21.311 18.242-34.258 22.58-69.362 23.241-17.286 0.3256-35.286 0.028-40-0.6613z"/>
   <path transform="matrix(.26458 0 0 .26458 -277.74 -311.09)" d="m995.77 552.67c-38.562-9.3425-70.183-33.091-84.316-63.324-10.28-21.99-10.778-52.444-1.2016-73.401 29.745-65.092 119.45-94.296 190.29-61.95 23.808 10.871 45.142 30.843 55.862 52.296 7.4677 14.944 8.7362 20.669 8.7362 39.427 0 28.479-9.8047 49.274-34.207 72.55-33.995 32.426-87.309 45.996-135.16 34.402z"/>
  </g>
 </g>
</svg>
