<svg aria-hidden="true" data-icon="chart-bar" data-prefix="far" focusable="false" role="img" version="1.1" viewBox="0 0 512 512" xmlns="http://www.w3.org/2000/svg">
 <path class="" d="M488 64h-8v20c0 6.6-5.4 12-12 12h-40c-6.6 0-12-5.4-12-12V64H96v20c0 6.6-5.4 12-12 12H44c-6.6 0-12-5.4-12-12V64h-8C10.7 64 0 74.7 0 88v336c0 13.3 10.7 24 24 24h8v-20c0-6.6 5.4-12 12-12h40c6.6 0 12 5.4 12 12v20h320v-20c0-6.6 5.4-12 12-12h40c6.6 0 12 5.4 12 12v20h8c13.3 0 24-10.7 24-24V88c0-13.3-10.7-24-24-24zM96 372c0 6.6-5.4 12-12 12H44c-6.6 0-12-5.4-12-12v-40c0-6.6 5.4-12 12-12h40c6.6 0 12 5.4 12 12v40zm0-96c0 6.6-5.4 12-12 12H44c-6.6 0-12-5.4-12-12v-40c0-6.6 5.4-12 12-12h40c6.6 0 12 5.4 12 12v40zm0-96c0 6.6-5.4 12-12 12H44c-6.6 0-12-5.4-12-12v-40c0-6.6 5.4-12 12-12h40c6.6 0 12 5.4 12 12v40zm384 192c0 6.6-5.4 12-12 12h-40c-6.6 0-12-5.4-12-12v-40c0-6.6 5.4-12 12-12h40c6.6 0 12 5.4 12 12v40zm0-96c0 6.6-5.4 12-12 12h-40c-6.6 0-12-5.4-12-12v-40c0-6.6 5.4-12 12-12h40c6.6 0 12 5.4 12 12v40zm0-96c0 6.6-5.4 12-12 12h-40c-6.6 0-12-5.4-12-12v-40c0-6.6 5.4-12 12-12h40c6.6 0 12 5.4 12 12v40z" fill="currentColor" style=""/>
 <path class="" d="m303.12 142.25c18.31 0 33.152-14.842 33.152-33.152 0-18.31-14.842-33.152-33.152-33.152s-33.152 14.842-33.152 33.152c0 18.31 14.842 33.152 33.152 33.152zm-109.34 152.96-10.222 23.842h-46.199c-12.204 0-22.101 9.8972-22.101 22.101 0 12.204 9.8972 22.101 22.101 22.101h53.492c13.295 0 25.265-7.9012 30.465-20.091l6.071-14.172-7.3694-4.3512c-11.962-7.0655-20.761-17.522-26.238-29.429zm186.69-64.563h-30.41l-17.999-36.778c-8.6333-17.647-24.484-30.548-42.669-35.183l-49.093-14.601c-19.546-4.6965-39.9-0.37987-55.833 11.838l-27.399 21.003c-9.69 7.4247-11.527 21.293-4.0887 30.983s21.3 11.506 30.983 4.0887l27.413-21.003c5.2974-4.068 12.045-5.5253 17.453-4.2407l10.153 3.0182-25.872 60.357c-8.7162 20.361-0.90477 44.21 18.165 55.467l58.693 34.651-18.973 60.592c-3.6467 11.645 2.8386 24.042 14.483 27.689 2.2032 0.69067 4.4272 1.0222 6.6166 1.0222 9.4 0 18.116-6.0571 21.079-15.505l21.853-69.799c4.0818-14.345-1.996-29.754-14.946-37.565l-42.296-24.961 21.625-54.065 14 28.614c5.5253 11.285 17.211 18.572 29.775 18.572h37.289c12.204 0 22.101-9.8972 22.101-22.101 0-12.204-9.8972-22.094-22.101-22.094z" fill="#55f" stroke-width=".69067"/>
 <g opacity=".503">
  <rect x="331.84" y="343.53" width="199.59" height="164.88" fill="#0f0" fill-opacity=".98431" stroke-width=".82115"/>
 </g>
 <g>
  <path d="m474.68 469.69c4.3089-0.43511 10.383 1.7072 12.426-3.5695 0.89779-8.9959 0.161-18.186 0.40086-27.26-0.0698-25.797 0.13961-51.608-0.10477-77.396-1.2399-6.1867-8.1666-4.3162-12.722-4.5886-6.4734 1.4623-4.2756 8.8893-4.6644 13.701 0.0698 31.506-0.13964 63.026 0.10477 94.524 0.46135 2.1824 2.1447 4.4572 4.5597 4.5886zm-69.966 0c4.3089-0.43511 10.383 1.7072 12.426-3.5695 0.89779-8.9959 0.161-18.186 0.40086-27.26-0.0697-21.096 0.13956-42.206-0.10477-63.294-1.2399-6.1867-8.1666-4.3162-12.722-4.5886-6.4734 1.4623-4.2756 8.8893-4.6644 13.701 0.0698 26.806-0.13961 53.625 0.10477 80.422 0.46135 2.1824 2.1447 4.4572 4.5597 4.5886zm34.983 0c4.3089-0.43511 10.383 1.7072 12.426-3.5695 0.89774-8.996 0.16099-18.186 0.40084-27.26-0.0694-11.695 0.13909-23.404-0.10476-35.091-1.2398-6.1867-8.1665-4.3162-12.722-4.5886-6.4734 1.4622-4.2755 8.8893-4.6644 13.701 0.0697 17.405-0.13945 34.823 0.10476 52.219 0.46132 2.1824 2.1447 4.4572 4.5597 4.5886zm71.132 21.153h-163.25c-0.0787-47.478 0.1576-94.969-0.1184-142.44-0.59623-6.0582-7.0014-5.888-11.543-5.6294-6.5991 0.57244-5.9231 8.2155-5.8305 13.096 0.04 47.821-0.0802 95.645 0.0602 143.46 0.1801 7.5282 7.0344 13.987 14.623 12.66h166.06c6.5991-0.57244 5.9231-8.2155 5.8305-13.096 0.35054-3.6009-1.7569-8.003-5.8305-8.0564zm-141.1-21.153c4.3089-0.43511 10.383 1.7072 12.426-3.5695 0.89779-8.9959 0.161-18.186 0.40086-27.26 0.023-4.3022 0.90304-11.086-5.1682-11.476-4.4215 0.19407-11.077-1.4566-12.219 4.5886-0.173 11.031-0.1755 22.097 0 33.128 0.46132 2.1824 2.1446 4.4572 4.5595 4.5886z" fill="#fc0" stroke-width=".40073"/>
 </g>
</svg>
